<svg width="22" height="22" viewBox="0 0 22 22" fill="none" xmlns="http://www.w3.org/2000/svg">
<path d="M18 14.5V11C18 10.7348 17.8947 10.4804 17.7071 10.2929C17.5196 10.1054 17.2652 10 17 10H16C18.24 8.39001 18.76 5.27001 17.15 3.00001C16.3709 1.92898 15.2001 1.20924 13.8927 0.997584C12.5853 0.785927 11.2472 1.09951 10.17 1.87001C9.50001 2.35001 8.96001 3.00001 8.60001 3.73001C8.04119 3.38381 7.41941 3.15156 6.77047 3.04662C6.12153 2.94168 5.45825 2.96613 4.81879 3.11855C4.17934 3.27098 3.57635 3.54838 3.04453 3.93478C2.51271 4.32118 2.06257 4.80895 1.72001 5.37001C1.02536 6.49989 0.807894 7.8594 1.11544 9.14959C1.42298 10.4398 2.23036 11.555 3.36001 12.25C3.57001 12.37 3.78001 12.5 4.00001 12.58V21C4.00001 21.2652 4.10537 21.5196 4.2929 21.7071C4.48044 21.8947 4.73479 22 5.00001 22H17C17.2652 22 17.5196 21.8947 17.7071 21.7071C17.8947 21.5196 18 21.2652 18 21V17.5L22 21.5V10.5L18 14.5ZM13 4.00001C13.5304 4.00001 14.0392 4.21073 14.4142 4.5858C14.7893 4.96087 15 5.46958 15 6.00001C15 6.53045 14.7893 7.03915 14.4142 7.41423C14.0392 7.7893 13.5304 8.00001 13 8.00001C12.4696 8.00001 11.9609 7.7893 11.5858 7.41423C11.2107 7.03915 11 6.53045 11 6.00001C11 5.46958 11.2107 4.96087 11.5858 4.5858C11.9609 4.21073 12.4696 4.00001 13 4.00001ZM6.00001 6.00001C6.53044 6.00001 7.03915 6.21073 7.41423 6.5858C7.7893 6.96087 8.00001 7.46958 8.00001 8.00001C8.00001 8.53045 7.7893 9.03915 7.41423 9.41423C7.03915 9.7893 6.53044 10 6.00001 10C5.46958 10 4.96087 9.7893 4.5858 9.41423C4.21072 9.03915 4.00001 8.53045 4.00001 8.00001C4.00001 7.46958 4.21072 6.96087 4.5858 6.5858C4.96087 6.21073 5.46958 6.00001 6.00001 6.00001Z" fill="#A1AAC8"/>
</svg>
