<svg width="20" height="21" viewBox="0 0 20 21" fill="none" xmlns="http://www.w3.org/2000/svg">
<path d="M18 0.5H2C0.9 0.5 0.00999999 1.4 0.00999999 2.5L0 20.5L4 16.5H18C19.1 16.5 20 15.6 20 14.5V2.5C20 1.4 19.1 0.5 18 0.5ZM5 7.5H15C15.55 7.5 16 7.95 16 8.5C16 9.05 15.55 9.5 15 9.5H5C4.45 9.5 4 9.05 4 8.5C4 7.95 4.45 7.5 5 7.5ZM11 12.5H5C4.45 12.5 4 12.05 4 11.5C4 10.95 4.45 10.5 5 10.5H11C11.55 10.5 12 10.95 12 11.5C12 12.05 11.55 12.5 11 12.5ZM15 6.5H5C4.45 6.5 4 6.05 4 5.5C4 4.95 4.45 4.5 5 4.5H15C15.55 4.5 16 4.95 16 5.5C16 6.05 15.55 6.5 15 6.5Z" fill="#4F4F55"/>
</svg>
