<svg width="16" height="16" viewBox="0 0 16 16" fill="none" xmlns="http://www.w3.org/2000/svg">
<path d="M2.25 16C1.65326 16 1.08097 15.7629 0.65901 15.341C0.237053 14.919 0 14.3467 0 13.75V2.25C0 1.65326 0.237053 1.08097 0.65901 0.659011C1.08097 0.237054 1.65326 1.24688e-06 2.25 1.24688e-06H9.5C9.69891 1.24688e-06 9.88968 0.0790189 10.0303 0.219671C10.171 0.360323 10.25 0.551089 10.25 0.750001C10.25 0.948913 10.171 1.13968 10.0303 1.28033C9.88968 1.42098 9.69891 1.5 9.5 1.5H2.25C2.05109 1.5 1.86032 1.57902 1.71967 1.71967C1.57902 1.86032 1.5 2.05109 1.5 2.25V13.75C1.5 13.9489 1.57902 14.1397 1.71967 14.2803C1.86032 14.421 2.05109 14.5 2.25 14.5H13.75C13.9489 14.5 14.1397 14.421 14.2803 14.2803C14.421 14.1397 14.5 13.9489 14.5 13.75V6.75C14.5 6.55109 14.579 6.36032 14.7197 6.21967C14.8603 6.07902 15.0511 6 15.25 6C15.4489 6 15.6397 6.07902 15.7803 6.21967C15.921 6.36032 16 6.55109 16 6.75V13.75C16 14.3467 15.7629 14.919 15.341 15.341C14.919 15.7629 14.3467 16 13.75 16H2.25ZM3.8925 11.6667L4.42083 8.5725C4.42019 8.57032 4.42019 8.56801 4.42083 8.56583L7.95417 5.0325L12.5517 0.439168C12.6907 0.299731 12.8559 0.189151 13.0378 0.113783C13.2197 0.0384151 13.4148 -0.000253125 13.6117 1.24688e-06C13.81 -0.000156918 14.0065 0.0387672 14.1898 0.11455C14.3731 0.190332 14.5397 0.301488 14.68 0.441668L15.1192 0.880835L15.5608 1.3225C15.842 1.60379 15.9999 1.98521 15.9999 2.38292C15.9999 2.78062 15.842 3.16205 15.5608 3.44333L10.9642 8.04083L7.4325 11.5742C7.43031 11.5747 7.42802 11.5747 7.42583 11.5742L4.33167 12.1017C4.3102 12.1054 4.28846 12.1074 4.26667 12.1075C4.2117 12.1074 4.15741 12.0953 4.10755 12.0722C4.0577 12.049 4.01346 12.0153 3.97789 11.9734C3.94232 11.9315 3.91626 11.8824 3.90152 11.8294C3.88678 11.7765 3.8837 11.7209 3.8925 11.6667ZM9.01667 6.09583L5.81667 9.29583L5.63417 10.3625L6.70083 10.18L9.90083 6.98L14.5 2.38417L14.0583 1.9425L13.6167 1.50083L9.01667 6.09583Z" fill="#636366"/>
</svg>
