<svg width="24" height="24" viewBox="0 0 24 24" fill="none" xmlns="http://www.w3.org/2000/svg">
<path fill-rule="evenodd" clip-rule="evenodd" d="M8.3883 10.2065H2.42415L1.69531 13.8226H8.41042" fill="#007AE1"/>
<path d="M8.3883 10.2065H2.42415L1.69531 13.8226H8.41042" stroke="#007AE1" stroke-width="0.676054"/>
<path d="M2.14844 13.8848V18.7002H8.3868" stroke="#007AE1" stroke-width="0.676054"/>
<path d="M3.39844 15.0688V17.5026H4.63635V15.0688H3.39844Z" stroke="#007AE1" stroke-width="0.270422"/>
<path d="M5.88281 15.0688V17.5026H7.12072V15.0688H5.88281Z" stroke="#007AE1" stroke-width="0.270422"/>
<path fill-rule="evenodd" clip-rule="evenodd" d="M2.3125 13.9614V18.7271H8.36454L7.11981 17.5184H3.26549V14.9353H7.23718L8.14788 14.0246L2.3125 13.9614Z" fill="#007AE1" stroke="#007AE1" stroke-width="0.270422"/>
<path fill-rule="evenodd" clip-rule="evenodd" d="M4.80072 14.9852V17.6655H5.7717V15.1115H7.19617V17.6932L8.11774 18.5553V14.2656H4.77344L4.80072 14.9852Z" fill="#007AE1" stroke="#007AE1" stroke-width="0.270422"/>
<path fill-rule="evenodd" clip-rule="evenodd" d="M15.659 10.2065H21.5758L22.3047 13.8226H15.6337" fill="#007AE1"/>
<path d="M15.659 10.2065H21.5758L22.3047 13.8226H15.6337" stroke="#007AE1" stroke-width="0.676054"/>
<path d="M21.8516 13.8848V18.7002H15.6543" stroke="#007AE1" stroke-width="0.676054"/>
<path d="M20.6016 15.0688V17.5026H19.3637V15.0688H20.6016Z" stroke="#007AE1" stroke-width="0.270422"/>
<path d="M18.1172 15.0688V17.5026H16.8793V15.0688H18.1172Z" stroke="#007AE1" stroke-width="0.270422"/>
<path fill-rule="evenodd" clip-rule="evenodd" d="M15.7706 13.9272V18.6848H21.8516L20.7902 17.7153H16.7022V14.8775H20.9154L21.6169 14.0735L15.7706 13.9272Z" fill="#007AE1" stroke="#007AE1" stroke-width="0.270422"/>
<path fill-rule="evenodd" clip-rule="evenodd" d="M18.3477 14.729V17.7824H19.0997V14.8188H20.8088V17.7326L21.5391 18.4629V14.353H18.2745L18.3477 14.729Z" fill="#007AE1" stroke="#007AE1" stroke-width="0.270422"/>
<path d="M6.75 7.96393L11.9962 3.87354L17.2424 7.96393" stroke="#007AE1" stroke-width="0.676054"/>
<path d="M12.0671 7.01367C13.2779 7.01367 14.2593 8.22438 14.2593 9.20582C14.2593 10.4165 13.2779 11.398 12.0671 11.398C10.8564 11.398 9.875 10.1873 9.875 9.20582C9.875 7.99511 10.8564 7.01367 12.0671 7.01367Z" stroke="#007AE1" stroke-width="0.676054"/>
<path d="M12.0703 8.04443V9.35425H13.2036" stroke="#007AE1" stroke-width="0.676054" stroke-linecap="round"/>
<path fill-rule="evenodd" clip-rule="evenodd" d="M11.9922 3.87369V0.644043L14.9111 1.20787V1.63389L12.0679 2.19332" fill="#007AE1"/>
<path d="M11.9922 3.87369V0.644043L14.9111 1.20787V1.63389L12.0679 2.19332" stroke="#007AE1" stroke-width="0.676054"/>
<path d="M10.7578 18.4099V15.3328C10.7578 14.6077 11.3455 14.02 12.0706 14.02C12.7955 14.02 13.3833 14.6077 13.3833 15.3328V18.4361" stroke="#007AE1" stroke-width="0.676054"/>
<path d="M8.35156 6.79736V18.7008H15.6343V6.88958" stroke="#007AE1" stroke-width="0.676054" stroke-linecap="round"/>
<path fill-rule="evenodd" clip-rule="evenodd" d="M8.39844 6.82771L11.8942 4.09375L15.4724 6.82771V18.6603H13.4024V14.8062L11.9355 13.9375V11.4375L13.1928 11.0938L14.2731 9.80938V8.36712L13.4024 7.34338L12.1754 7.06428L10.7923 7.34338L10.1287 8.07985L8.39844 6.82771Z" fill="#007AE1" stroke="#007AE1" stroke-width="0.270422"/>
<path fill-rule="evenodd" clip-rule="evenodd" d="M8.40625 18.5982V6.85889L10.1082 8.04309L9.84557 9.07513L10.1082 10.105L10.8365 10.9658L12.0238 11.5342V14.069L11.0401 14.4956L10.7322 15.4055V18.6892L8.40625 18.5982Z" fill="#007AE1" stroke="#007AE1" stroke-width="0.270422"/>
</svg>
